<?xml version="1.0" encoding="UTF-8"?>
<svg id="Layer_1" data-name="Layer 1" xmlns="http://www.w3.org/2000/svg" viewBox="0 0 66.13 47.29">
  <defs>
    <style>
      .cls-1 {
        fill: #e1dfdf;
        stroke-width: 0px;
      }
    </style>
  </defs>
  <path class="cls-1" d="M66.13,31.74v14.91h-12.48v-14.91s12.48,0,12.48,0ZM47.25,46.66h-12.48V.58h12.48v17.73h18.88v10.18h-18.88v18.18h0ZM53.65,15.17V.58h12.48v14.59h-12.48ZM13.88,29.7l5.31-11.33,2.75,1.22c2.9,1.28,5.01,2.88,6.34,4.8,1.32,1.88,1.98,4.57,1.98,8.06,0,4.74-1.24,8.38-3.71,10.94s-6.55,3.86-12.22,3.9c-2.82,0-5.44-.19-7.87-.58-2.43-.34-4.59-.75-6.46-1.22l1.28-10.3s.51.09,1.54.26c1.07.17,2.47.34,4.22.51s3.67.26,5.76.26c1.62,0,2.84-.23,3.65-.7s1.22-1.24,1.22-2.3c0-.73-.19-1.3-.58-1.73-.38-.43-1.07-.85-2.05-1.28l-1.15-.51h-.01ZM16.18,17.09l-5.25,11.2-2.69-1.22c-2.52-1.15-4.46-2.69-5.82-4.61-1.37-1.92-2.05-4.71-2.05-8.38,0-4.69,1.22-8.19,3.65-10.5C6.5,1.24,10.57.04,16.25,0c2.35,0,4.48.11,6.4.32,1.92.21,3.46.45,4.61.7,1.15.21,1.73.32,1.73.32l-1.28,10.3s-.53-.06-1.6-.19c-1.02-.13-2.3-.23-3.84-.32-1.54-.13-3.03-.19-4.48-.19-1.54,0-2.71.23-3.52.7-.77.43-1.15,1.26-1.15,2.5,0,.68.28,1.24.83,1.66.55.43,1.3.85,2.24,1.28h0Z"/>
</svg>